<?xml version="1.0" encoding="UTF-8"?>
<svg xmlns="http://www.w3.org/2000/svg" xmlns:xlink="http://www.w3.org/1999/xlink" width="800" height="200" viewBox="0 0 800 200">
<rect x="-80" y="-20" width="960" height="240" fill="rgb(100%, 100%, 100%)" fill-opacity="1"/>
<path fill="none" stroke-width="2" stroke-linecap="butt" stroke-linejoin="miter" stroke="rgb(100%, 0%, 0%)" stroke-opacity="1" stroke-miterlimit="10" d="M 85.839844 99.535156 C 115.761719 70.269531 145.679688 43.554688 175.601562 50.191406 C 205.519531 56.832031 235.441406 96.828125 265.359375 122.097656 C 295.28125 147.371094 325.199219 157.917969 355.121094 140.371094 C 385.039062 122.820312 414.960938 77.179688 444.878906 59.628906 C 474.800781 42.082031 504.71875 52.628906 534.640625 77.902344 C 564.558594 103.171875 594.480469 143.167969 624.398438 149.808594 C 654.320312 156.445312 684.238281 129.730469 714.160156 100.464844 "/>
<path fill="none" stroke-width="1" stroke-linecap="butt" stroke-linejoin="miter" stroke="rgb(50%, 50%, 50%)" stroke-opacity="1" stroke-miterlimit="10" d="M 85.839844 99.535156 L 115.761719 70.269531 L 175.601562 16.835938 L 265.359375 136.820312 L 355.121094 168.464844 L 444.878906 31.535156 L 534.640625 63.179688 L 624.398438 183.164062 L 684.238281 129.730469 L 714.160156 100.464844 "/>
<path fill-rule="nonzero" fill="rgb(25%, 25%, 25%)" fill-opacity="1" d="M 88.839844 99.535156 C 88.839844 101.191406 87.496094 102.535156 85.839844 102.535156 C 84.183594 102.535156 82.839844 101.191406 82.839844 99.535156 C 82.839844 97.875 84.183594 96.535156 85.839844 96.535156 C 87.496094 96.535156 88.839844 97.875 88.839844 99.535156 Z M 88.839844 99.535156 "/>
<path fill-rule="nonzero" fill="rgb(25%, 25%, 25%)" fill-opacity="1" d="M 118.761719 70.269531 C 118.761719 71.925781 117.417969 73.269531 115.761719 73.269531 C 114.105469 73.269531 112.761719 71.925781 112.761719 70.269531 C 112.761719 68.613281 114.105469 67.269531 115.761719 67.269531 C 117.417969 67.269531 118.761719 68.613281 118.761719 70.269531 Z M 118.761719 70.269531 "/>
<path fill-rule="nonzero" fill="rgb(25%, 25%, 25%)" fill-opacity="1" d="M 178.601562 16.835938 C 178.601562 18.496094 177.257812 19.835938 175.601562 19.835938 C 173.945312 19.835938 172.601562 18.496094 172.601562 16.835938 C 172.601562 15.179688 173.945312 13.835938 175.601562 13.835938 C 177.257812 13.835938 178.601562 15.179688 178.601562 16.835938 Z M 178.601562 16.835938 "/>
<path fill-rule="nonzero" fill="rgb(25%, 25%, 25%)" fill-opacity="1" d="M 268.359375 136.820312 C 268.359375 138.480469 267.015625 139.820312 265.359375 139.820312 C 263.703125 139.820312 262.359375 138.480469 262.359375 136.820312 C 262.359375 135.164062 263.703125 133.820312 265.359375 133.820312 C 267.015625 133.820312 268.359375 135.164062 268.359375 136.820312 Z M 268.359375 136.820312 "/>
<path fill-rule="nonzero" fill="rgb(25%, 25%, 25%)" fill-opacity="1" d="M 358.121094 168.464844 C 358.121094 170.121094 356.777344 171.464844 355.121094 171.464844 C 353.464844 171.464844 352.121094 170.121094 352.121094 168.464844 C 352.121094 166.808594 353.464844 165.464844 355.121094 165.464844 C 356.777344 165.464844 358.121094 166.808594 358.121094 168.464844 Z M 358.121094 168.464844 "/>
<path fill-rule="nonzero" fill="rgb(25%, 25%, 25%)" fill-opacity="1" d="M 447.878906 31.535156 C 447.878906 33.191406 446.535156 34.535156 444.878906 34.535156 C 443.222656 34.535156 441.878906 33.191406 441.878906 31.535156 C 441.878906 29.878906 443.222656 28.535156 444.878906 28.535156 C 446.535156 28.535156 447.878906 29.878906 447.878906 31.535156 Z M 447.878906 31.535156 "/>
<path fill-rule="nonzero" fill="rgb(25%, 25%, 25%)" fill-opacity="1" d="M 537.640625 63.179688 C 537.640625 64.835938 536.296875 66.179688 534.640625 66.179688 C 532.984375 66.179688 531.640625 64.835938 531.640625 63.179688 C 531.640625 61.519531 532.984375 60.179688 534.640625 60.179688 C 536.296875 60.179688 537.640625 61.519531 537.640625 63.179688 Z M 537.640625 63.179688 "/>
<path fill-rule="nonzero" fill="rgb(25%, 25%, 25%)" fill-opacity="1" d="M 627.398438 183.164062 C 627.398438 184.820312 626.054688 186.164062 624.398438 186.164062 C 622.742188 186.164062 621.398438 184.820312 621.398438 183.164062 C 621.398438 181.503906 622.742188 180.164062 624.398438 180.164062 C 626.054688 180.164062 627.398438 181.503906 627.398438 183.164062 Z M 627.398438 183.164062 "/>
<path fill-rule="nonzero" fill="rgb(25%, 25%, 25%)" fill-opacity="1" d="M 687.238281 129.730469 C 687.238281 131.386719 685.894531 132.730469 684.238281 132.730469 C 682.582031 132.730469 681.238281 131.386719 681.238281 129.730469 C 681.238281 128.074219 682.582031 126.730469 684.238281 126.730469 C 685.894531 126.730469 687.238281 128.074219 687.238281 129.730469 Z M 687.238281 129.730469 "/>
<path fill-rule="nonzero" fill="rgb(25%, 25%, 25%)" fill-opacity="1" d="M 717.160156 100.464844 C 717.160156 102.125 715.816406 103.464844 714.160156 103.464844 C 712.503906 103.464844 711.160156 102.125 711.160156 100.464844 C 711.160156 98.808594 712.503906 97.464844 714.160156 97.464844 C 715.816406 97.464844 717.160156 98.808594 717.160156 100.464844 Z M 717.160156 100.464844 "/>
</svg>
