<?xml version="1.0" encoding="UTF-8"?>
<svg xmlns="http://www.w3.org/2000/svg" xmlns:xlink="http://www.w3.org/1999/xlink" width="800pt" height="200pt" viewBox="0 0 800 200" version="1.1">
<g id="surface31">
<rect x="0" y="0" width="800" height="200" style="fill:rgb(100%,100%,100%);fill-opacity:1;stroke:none;"/>
<path style="fill:none;stroke-width:2;stroke-linecap:butt;stroke-linejoin:miter;stroke:rgb(100%,0%,0%);stroke-opacity:1;stroke-miterlimit:10;" d="M 85.839844 99.535156 C 115.761719 70.269531 145.679688 43.554688 175.601562 50.191406 C 205.519531 56.832031 235.441406 96.828125 265.359375 122.097656 C 295.28125 147.371094 325.199219 157.917969 355.121094 140.371094 C 385.039062 122.820312 414.960938 77.179688 444.878906 59.628906 C 474.800781 42.082031 504.71875 52.628906 534.640625 77.902344 C 564.558594 103.171875 594.480469 143.167969 624.398438 149.808594 C 654.320312 156.445312 684.238281 129.730469 714.160156 100.464844 "/>
<path style="fill:none;stroke-width:1;stroke-linecap:butt;stroke-linejoin:miter;stroke:rgb(50%,50%,50%);stroke-opacity:1;stroke-miterlimit:10;" d="M 85.839844 99.535156 L 115.761719 70.269531 L 175.601562 16.835938 L 265.359375 136.820312 L 355.121094 168.464844 L 444.878906 31.535156 L 534.640625 63.179688 L 624.398438 183.164062 L 684.238281 129.730469 L 714.160156 100.464844 "/>
<path style=" stroke:none;fill-rule:nonzero;fill:rgb(25%,25%,25%);fill-opacity:1;" d="M 88.839844 99.535156 C 88.839844 103.535156 82.839844 103.535156 82.839844 99.535156 C 82.839844 95.535156 88.839844 95.535156 88.839844 99.535156 "/>
<path style=" stroke:none;fill-rule:nonzero;fill:rgb(25%,25%,25%);fill-opacity:1;" d="M 118.761719 70.269531 C 118.761719 74.269531 112.761719 74.269531 112.761719 70.269531 C 112.761719 66.269531 118.761719 66.269531 118.761719 70.269531 "/>
<path style=" stroke:none;fill-rule:nonzero;fill:rgb(25%,25%,25%);fill-opacity:1;" d="M 178.601562 16.835938 C 178.601562 20.835938 172.601562 20.835938 172.601562 16.835938 C 172.601562 12.835938 178.601562 12.835938 178.601562 16.835938 "/>
<path style=" stroke:none;fill-rule:nonzero;fill:rgb(25%,25%,25%);fill-opacity:1;" d="M 268.359375 136.820312 C 268.359375 140.820312 262.359375 140.820312 262.359375 136.820312 C 262.359375 132.820312 268.359375 132.820312 268.359375 136.820312 "/>
<path style=" stroke:none;fill-rule:nonzero;fill:rgb(25%,25%,25%);fill-opacity:1;" d="M 358.121094 168.464844 C 358.121094 172.464844 352.121094 172.464844 352.121094 168.464844 C 352.121094 164.464844 358.121094 164.464844 358.121094 168.464844 "/>
<path style=" stroke:none;fill-rule:nonzero;fill:rgb(25%,25%,25%);fill-opacity:1;" d="M 447.878906 31.535156 C 447.878906 35.535156 441.878906 35.535156 441.878906 31.535156 C 441.878906 27.535156 447.878906 27.535156 447.878906 31.535156 "/>
<path style=" stroke:none;fill-rule:nonzero;fill:rgb(25%,25%,25%);fill-opacity:1;" d="M 537.640625 63.179688 C 537.640625 67.179688 531.640625 67.179688 531.640625 63.179688 C 531.640625 59.179688 537.640625 59.179688 537.640625 63.179688 "/>
<path style=" stroke:none;fill-rule:nonzero;fill:rgb(25%,25%,25%);fill-opacity:1;" d="M 627.398438 183.164062 C 627.398438 187.164062 621.398438 187.164062 621.398438 183.164062 C 621.398438 179.164062 627.398438 179.164062 627.398438 183.164062 "/>
<path style=" stroke:none;fill-rule:nonzero;fill:rgb(25%,25%,25%);fill-opacity:1;" d="M 687.238281 129.730469 C 687.238281 133.730469 681.238281 133.730469 681.238281 129.730469 C 681.238281 125.730469 687.238281 125.730469 687.238281 129.730469 "/>
<path style=" stroke:none;fill-rule:nonzero;fill:rgb(25%,25%,25%);fill-opacity:1;" d="M 717.160156 100.464844 C 717.160156 104.464844 711.160156 104.464844 711.160156 100.464844 C 711.160156 96.464844 717.160156 96.464844 717.160156 100.464844 "/>
</g>
</svg>
